<svg width="18" height="22" viewBox="0 0 18 22" fill="none" xmlns="http://www.w3.org/2000/svg">
<path d="M1 18.5C1 17.837 1.26339 17.2011 1.73223 16.7322C2.20107 16.2634 2.83696 16 3.5 16H17" stroke="black" stroke-width="2" stroke-linecap="round" stroke-linejoin="round"/>
<path d="M3.5 1H17V21H3.5C2.83696 21 2.20107 20.7366 1.73223 20.2678C1.26339 19.7989 1 19.163 1 18.5V3.5C1 2.83696 1.26339 2.20107 1.73223 1.73223C2.20107 1.26339 2.83696 1 3.5 1Z" stroke="black" stroke-width="2" stroke-linecap="round" stroke-linejoin="round"/>
<path d="M13.5995 7.91824V8.33224C13.599 9.30263 13.2848 10.2468 12.7037 11.0241C12.1227 11.8013 11.306 12.3699 10.3755 12.645C9.44489 12.9201 8.45031 12.8871 7.54006 12.5508C6.6298 12.2145 5.85264 11.593 5.32448 10.7789C4.79632 9.96485 4.54545 9.00187 4.6093 8.03358C4.67315 7.06529 5.04829 6.14359 5.67877 5.40592C6.30926 4.66826 7.1613 4.15416 8.10783 3.94031C9.05436 3.72645 10.0447 3.82429 10.931 4.21924" stroke="black" stroke-width="2" stroke-linecap="round" stroke-linejoin="round"/>
<path d="M13.5995 4.73224L9.09951 9.23674L7.74951 7.88674" stroke="black" stroke-width="2" stroke-linecap="round" stroke-linejoin="round"/>
</svg>
