<svg width="50" height="50" viewBox="0 0 50 50" fill="none" xmlns="http://www.w3.org/2000/svg">
<path d="M8.33333 40.625C8.33333 39.2437 8.88206 37.9189 9.85881 36.9422C10.8356 35.9654 12.1603 35.4167 13.5417 35.4167H41.6667" stroke="black" stroke-width="2" stroke-linecap="round" stroke-linejoin="round"/>
<path d="M13.5417 4.16667H41.6667V45.8333H13.5417C12.1603 45.8333 10.8356 45.2846 9.85881 44.3079C8.88206 43.3311 8.33333 42.0063 8.33333 40.625V9.37501C8.33333 7.99367 8.88206 6.66891 9.85881 5.69216C10.8356 4.71541 12.1603 4.16667 13.5417 4.16667Z" stroke="black" stroke-width="2" stroke-linecap="round" stroke-linejoin="round"/>
<path d="M28.7013 14.3036C28.5181 14.4906 28.4155 14.7419 28.4155 15.0036C28.4155 15.2654 28.5181 15.5167 28.7013 15.7036L30.3013 17.3036C30.4882 17.4869 30.7396 17.5895 31.0013 17.5895C31.2631 17.5895 31.5144 17.4869 31.7013 17.3036L35.4713 13.5336C35.9742 14.6448 36.1264 15.8829 35.9078 17.0828C35.6892 18.2827 35.11 19.3875 34.2476 20.2499C33.3852 21.1124 32.2804 21.6915 31.0805 21.9101C29.8806 22.1287 28.6425 21.9765 27.5313 21.4736L20.6213 28.3836C20.2235 28.7815 19.6839 29.005 19.1213 29.005C18.5587 29.005 18.0191 28.7815 17.6213 28.3836C17.2235 27.9858 17 27.4462 17 26.8836C17 26.321 17.2235 25.7815 17.6213 25.3836L24.5313 18.4736C24.0285 17.3625 23.8762 16.1244 24.0949 14.9245C24.3135 13.7246 24.8926 12.6198 25.755 11.7574C26.6175 10.8949 27.7223 10.3158 28.9222 10.0972C30.1221 9.87856 31.3601 10.0308 32.4713 10.5336L28.7113 14.2936L28.7013 14.3036Z" stroke="black" stroke-width="2" stroke-linecap="round" stroke-linejoin="round"/>
</svg>
