<svg width="37" height="22" viewBox="0 0 37 22" fill="none" xmlns="http://www.w3.org/2000/svg">
<path d="M20 18.5C20 17.837 20.2634 17.2011 20.7322 16.7322C21.2011 16.2634 21.837 16 22.5 16H36" stroke="black" stroke-width="2" stroke-linecap="round" stroke-linejoin="round"/>
<path d="M22.5 1H36V21H22.5C21.837 21 21.2011 20.7366 20.7322 20.2678C20.2634 19.7989 20 19.163 20 18.5V3.5C20 2.83696 20.2634 2.20107 20.7322 1.73223C21.2011 1.26339 21.837 1 22.5 1Z" stroke="black" stroke-width="2" stroke-linecap="round" stroke-linejoin="round"/>
<path d="M12 13L17 8L12 3" stroke="black" stroke-width="2" stroke-linecap="round" stroke-linejoin="round"/>
<path d="M1 19V12C1 10.9391 1.42143 9.92172 2.17157 9.17157C2.92172 8.42143 3.93913 8 5 8H17" stroke="black" stroke-width="2" stroke-linecap="round" stroke-linejoin="round"/>
</svg>
