<svg width="50" height="50" viewBox="0 0 50 50" fill="none" xmlns="http://www.w3.org/2000/svg">
<path d="M44.0122 1.91257C44.2702 1.64538 44.5783 1.43163 44.9189 1.28352C45.2596 1.13541 45.626 1.05585 45.9974 1.04936C46.3688 1.04288 46.7378 1.10961 47.0834 1.24574C47.429 1.38187 47.7444 1.58474 48.0116 1.84276C48.2788 2.10078 48.4925 2.4089 48.6406 2.74953C48.7887 3.09015 48.8683 3.45662 48.8748 3.828C48.8813 4.19937 48.8145 4.56839 48.6784 4.91398C48.5423 5.25957 48.3394 5.57496 48.0814 5.84215L34.819 19.5757L29.3461 21.1715L30.7498 15.6461L44.0122 1.91257Z" stroke="black" stroke-width="2" stroke-linecap="round" stroke-linejoin="round"/>
<path d="M22.9167 8.33333L8.33335 8.33333C7.22828 8.33333 6.16848 8.77231 5.38708 9.55372C4.60567 10.3351 4.16669 11.3949 4.16669 12.5L4.16669 41.6667C4.16669 42.7717 4.60567 43.8315 5.38708 44.6129C6.16848 45.3943 7.22828 45.8333 8.33335 45.8333L37.5 45.8333C38.6051 45.8333 39.6649 45.3943 40.4463 44.6129C41.2277 43.8315 41.6667 42.7717 41.6667 41.6667V27.0833" stroke="black" stroke-width="2" stroke-linecap="round" stroke-linejoin="round"/>
<g clip-path="url(#clip0_7_38)">
<path d="M25.1667 37.5V35.8333C25.1667 34.9493 24.8155 34.1014 24.1904 33.4763C23.5652 32.8512 22.7174 32.5 21.8333 32.5H15.1667C14.2826 32.5 13.4348 32.8512 12.8097 33.4763C12.1845 34.1014 11.8333 34.9493 11.8333 35.8333V37.5" stroke="black" stroke-width="2" stroke-linecap="round" stroke-linejoin="round"/>
<path d="M18.5 29.1667C20.3409 29.1667 21.8333 27.6743 21.8333 25.8333C21.8333 23.9924 20.3409 22.5 18.5 22.5C16.659 22.5 15.1667 23.9924 15.1667 25.8333C15.1667 27.6743 16.659 29.1667 18.5 29.1667Z" stroke="black" stroke-width="2" stroke-linecap="round" stroke-linejoin="round"/>
<path d="M30.1667 37.5V35.8333C30.1661 35.0948 29.9203 34.3773 29.4678 33.7936C29.0153 33.2099 28.3818 32.793 27.6667 32.6083" stroke="black" stroke-width="2" stroke-linecap="round" stroke-linejoin="round"/>
<path d="M24.3333 22.6083C25.0504 22.7919 25.6859 23.2089 26.1397 23.7936C26.5935 24.3783 26.8399 25.0974 26.8399 25.8375C26.8399 26.5776 26.5935 27.2967 26.1397 27.8814C25.6859 28.4661 25.0504 28.8831 24.3333 29.0667" stroke="black" stroke-width="2" stroke-linecap="round" stroke-linejoin="round"/>
</g>
<defs>
<clipPath id="clip0_7_38">
<rect width="20" height="20" fill="white" transform="translate(11 20)"/>
</clipPath>
</defs>
</svg>
