<svg width="24" height="24" viewBox="0 0 24 24" fill="none" xmlns="http://www.w3.org/2000/svg">
<path d="M1 1H7.6C8.76695 1 9.88611 1.51508 10.7113 2.43192C11.5364 3.34877 12 4.59227 12 5.88889V23C12 22.0275 11.6523 21.0949 11.0335 20.4073C10.4146 19.7196 9.57521 19.3333 8.7 19.3333H1V1Z" stroke="black" stroke-width="2" stroke-linecap="round" stroke-linejoin="round"/>
<path d="M23 1H16.4C15.233 1 14.1139 1.51508 13.2887 2.43192C12.4636 3.34877 12 4.59227 12 5.88889V23C12 22.0275 12.3477 21.0949 12.9665 20.4073C13.5854 19.7196 14.4248 19.3333 15.3 19.3333H23V1Z" stroke="black" stroke-width="2" stroke-linecap="round" stroke-linejoin="round"/>
<path d="M19.5043 6.27273V15H17.6591V8.02415H17.608L15.6094 9.27699V7.64062L17.7699 6.27273H19.5043Z" fill="black"/>
<path d="M10.4588 9.32812H8.59233C8.55824 9.08665 8.48864 8.87216 8.38352 8.68466C8.27841 8.49432 8.14347 8.33239 7.97869 8.19886C7.81392 8.06534 7.62358 7.96307 7.40767 7.89205C7.1946 7.82102 6.96307 7.78551 6.71307 7.78551C6.26136 7.78551 5.8679 7.89773 5.53267 8.12216C5.19744 8.34375 4.9375 8.66761 4.75284 9.09375C4.56818 9.51705 4.47585 10.0312 4.47585 10.6364C4.47585 11.2585 4.56818 11.7812 4.75284 12.2045C4.94034 12.6278 5.2017 12.9474 5.53693 13.1634C5.87216 13.3793 6.25994 13.4872 6.70028 13.4872C6.94744 13.4872 7.17614 13.4545 7.38636 13.3892C7.59943 13.3239 7.78835 13.2287 7.95312 13.1037C8.1179 12.9759 8.25426 12.821 8.36222 12.6392C8.47301 12.4574 8.54972 12.25 8.59233 12.017L10.4588 12.0256C10.4105 12.4261 10.2898 12.8125 10.0966 13.1847C9.90625 13.554 9.64915 13.8849 9.32528 14.1776C9.00426 14.4673 8.62074 14.6974 8.17472 14.8679C7.73153 15.0355 7.23011 15.1193 6.67045 15.1193C5.89205 15.1193 5.19602 14.9432 4.58239 14.5909C3.97159 14.2386 3.48864 13.7287 3.13352 13.0611C2.78125 12.3935 2.60511 11.5852 2.60511 10.6364C2.60511 9.68466 2.78409 8.875 3.14205 8.20739C3.5 7.53977 3.9858 7.03125 4.59943 6.68182C5.21307 6.32955 5.90341 6.15341 6.67045 6.15341C7.17614 6.15341 7.64489 6.22443 8.0767 6.36648C8.51136 6.50852 8.89631 6.71591 9.23153 6.98864C9.56676 7.25852 9.83949 7.58949 10.0497 7.98153C10.2628 8.37358 10.3991 8.82244 10.4588 9.32812Z" fill="black"/>
</svg>
