<svg width="133" height="43" viewBox="0 0 133 43" fill="none" xmlns="http://www.w3.org/2000/svg">
<path d="M24.3672 29.2344C23.5 29.2344 22.707 29.0156 21.9883 28.5781C21.2773 28.1406 20.7109 27.5547 20.2891 26.8203C19.875 26.0781 19.668 25.2539 19.668 24.3477L19.6914 16.8594C19.6914 15.9688 19.8945 15.1641 20.3008 14.4453C20.707 13.7188 21.2656 13.1367 21.9766 12.6992C22.6953 12.2539 23.4922 12.0312 24.3672 12.0312C25.2578 12.0312 26.0508 12.2461 26.7461 12.6758C27.4492 13.1055 28.0078 13.6875 28.4219 14.4219C28.8438 15.1484 29.0547 15.9609 29.0547 16.8594V17.9609C29.0547 18.0234 29.0234 18.0547 28.9609 18.0547H26.2656C26.2031 18.0547 26.1719 18.0234 26.1719 17.9609V16.8594C26.1719 16.3281 26 15.8711 25.6562 15.4883C25.3125 15.1055 24.8828 14.9141 24.3672 14.9141C23.7969 14.9141 23.3594 15.1094 23.0547 15.5C22.75 15.8906 22.5977 16.3438 22.5977 16.8594V24.3477C22.5977 24.9336 22.7695 25.4141 23.1133 25.7891C23.457 26.1562 23.875 26.3398 24.3672 26.3398C24.8828 26.3398 25.3125 26.1367 25.6562 25.7305C26 25.3164 26.1719 24.8555 26.1719 24.3477V23.2344C26.1719 23.1719 26.2031 23.1406 26.2656 23.1406H28.9844C29.0469 23.1406 29.0781 23.1719 29.0781 23.2344V24.3477C29.0781 25.2461 28.8672 26.0664 28.4453 26.8086C28.0156 27.543 27.4492 28.1328 26.7461 28.5781C26.043 29.0156 25.25 29.2344 24.3672 29.2344ZM33.6367 29H30.918C30.8555 29 30.8242 28.9609 30.8242 28.8828L30.8477 12.3945C30.8477 12.332 30.8867 12.3008 30.9648 12.3008H33.6367C33.7148 12.3008 33.7539 12.332 33.7539 12.3945L33.7305 18.9219H37.3281V12.3945C37.3281 12.332 37.3594 12.3008 37.4219 12.3008H40.0938C40.1719 12.3008 40.2109 12.332 40.2109 12.3945L40.2578 28.8828C40.2578 28.9609 40.2188 29 40.1406 29H37.4453C37.3672 29 37.3281 28.9609 37.3281 28.8828V21.8281H33.7305V28.8828C33.7305 28.9609 33.6992 29 33.6367 29ZM41.4062 28.8828L44.3828 12.3945C44.3984 12.332 44.4375 12.3008 44.5 12.3008H47.9805C48.043 12.3008 48.082 12.332 48.0977 12.3945L50.957 28.8828C50.9648 28.9609 50.9336 29 50.8633 29H48.2031C48.125 29 48.082 28.9609 48.0742 28.8828L47.8164 27.125H44.5469L44.2891 28.8828C44.2812 28.9609 44.2422 29 44.1719 29H41.5C41.4375 29 41.4062 28.9609 41.4062 28.8828ZM46.3516 17.8203L46.2109 16.9297L46.1055 17.8203L45.0273 24.5586H47.3359L46.3516 17.8203ZM55.2695 29H52.5742C52.4961 29 52.457 28.9609 52.457 28.8828L52.5039 12.3945C52.5039 12.332 52.5352 12.3008 52.5977 12.3008H57.2148C58.6836 12.3008 59.8438 12.75 60.6953 13.6484C61.5547 14.5391 61.9844 15.7539 61.9844 17.293C61.9844 18.418 61.7617 19.3984 61.3164 20.2344C60.8633 21.0625 60.2773 21.7031 59.5586 22.1562C58.8398 22.6094 58.0586 22.8359 57.2148 22.8359H55.3867V28.8828C55.3867 28.9609 55.3477 29 55.2695 29ZM57.2148 15.1484L55.3867 15.1719V19.9297H57.2148C57.7227 19.9297 58.1641 19.6875 58.5391 19.2031C58.9141 18.7109 59.1016 18.0742 59.1016 17.293C59.1016 16.668 58.9336 16.1562 58.5977 15.7578C58.2617 15.3516 57.8008 15.1484 57.2148 15.1484ZM68.7344 29H66.0273C65.957 29 65.9219 28.9609 65.9219 28.8828V15.1953H62.8047C62.7266 15.1953 62.6875 15.1562 62.6875 15.0781L62.7109 12.3945C62.7109 12.332 62.7422 12.3008 62.8047 12.3008H71.9219C72.0078 12.3008 72.0508 12.332 72.0508 12.3945V15.0781C72.0508 15.1562 72.0195 15.1953 71.957 15.1953H68.8047L68.8281 28.8828C68.8281 28.9609 68.7969 29 68.7344 29ZM81.0742 29H73.3164C73.2539 29 73.2227 28.9609 73.2227 28.8828L73.2461 12.3945C73.2461 12.332 73.2773 12.3008 73.3398 12.3008H81.0508C81.1133 12.3008 81.1445 12.3398 81.1445 12.418V15.1016C81.1445 15.1641 81.1133 15.1953 81.0508 15.1953H76.1289V18.9453H81.0508C81.1133 18.9453 81.1445 18.9766 81.1445 19.0391L81.168 21.7578C81.168 21.8203 81.1367 21.8516 81.0742 21.8516H76.1289V26.0469H81.0742C81.1367 26.0469 81.168 26.0859 81.168 26.1641V28.9062C81.168 28.9688 81.1367 29 81.0742 29ZM86.1133 29H83.3945C83.332 29 83.3008 28.9609 83.3008 28.8828L83.3477 12.3945C83.3477 12.332 83.3789 12.3008 83.4414 12.3008H88.293C89.1602 12.3008 89.957 12.5117 90.6836 12.9336C91.4102 13.3555 91.9883 13.9219 92.418 14.6328C92.8555 15.3438 93.0742 16.1484 93.0742 17.0469C93.0742 17.6328 92.9844 18.1641 92.8047 18.6406C92.625 19.1172 92.4141 19.5195 92.1719 19.8477C91.9375 20.1758 91.7227 20.418 91.5273 20.5742C92.3945 21.5352 92.8281 22.6641 92.8281 23.9609L92.8516 28.8828C92.8516 28.9609 92.8125 29 92.7344 29H90.0156C89.9531 29 89.9219 28.9766 89.9219 28.9297V23.9609C89.9219 23.3828 89.7188 22.8828 89.3125 22.4609C88.9062 22.0391 88.4062 21.8281 87.8125 21.8281H86.2305L86.207 28.8828C86.207 28.9609 86.1758 29 86.1133 29ZM88.293 15.1719H86.2305V18.9453H88.293C88.7852 18.9453 89.2227 18.7617 89.6055 18.3945C89.9961 18.0273 90.1914 17.5781 90.1914 17.0469C90.1914 16.5391 90.0039 16.1016 89.6289 15.7344C89.2539 15.3594 88.8086 15.1719 88.293 15.1719ZM105.555 29.2344C104.703 29.2344 103.918 29.0156 103.199 28.5781C102.488 28.1406 101.914 27.5586 101.477 26.832C101.047 26.0977 100.832 25.293 100.832 24.418L100.855 16.8125C100.855 15.9219 101.07 15.1211 101.5 14.4102C101.922 13.6914 102.492 13.1172 103.211 12.6875C103.93 12.25 104.711 12.0312 105.555 12.0312C106.43 12.0312 107.215 12.2461 107.91 12.6758C108.613 13.1055 109.176 13.6836 109.598 14.4102C110.027 15.1289 110.242 15.9297 110.242 16.8125L110.266 24.418C110.266 25.293 110.055 26.0938 109.633 26.8203C109.203 27.5547 108.633 28.1406 107.922 28.5781C107.211 29.0156 106.422 29.2344 105.555 29.2344ZM105.555 26.3398C106.039 26.3398 106.461 26.1445 106.82 25.7539C107.18 25.3555 107.359 24.9102 107.359 24.418L107.336 16.8125C107.336 16.2812 107.168 15.832 106.832 15.4648C106.496 15.0977 106.07 14.9141 105.555 14.9141C105.062 14.9141 104.641 15.0938 104.289 15.4531C103.938 15.8125 103.762 16.2656 103.762 16.8125V24.418C103.762 24.9414 103.938 25.3945 104.289 25.7773C104.641 26.1523 105.062 26.3398 105.555 26.3398ZM114.695 29H112.293C112.168 29 112.105 28.9453 112.105 28.8359L112.082 12.4883C112.082 12.3633 112.145 12.3008 112.27 12.3008H114.438L118.492 21.7578L118.375 12.4883C118.375 12.3633 118.445 12.3008 118.586 12.3008H120.965C121.059 12.3008 121.105 12.3633 121.105 12.4883L121.129 28.8594C121.129 28.9531 121.09 29 121.012 29H118.902L114.742 20.1641L114.918 28.8125C114.918 28.9375 114.844 29 114.695 29ZM131.066 29H123.309C123.246 29 123.215 28.9609 123.215 28.8828L123.238 12.3945C123.238 12.332 123.27 12.3008 123.332 12.3008H131.043C131.105 12.3008 131.137 12.3398 131.137 12.418V15.1016C131.137 15.1641 131.105 15.1953 131.043 15.1953H126.121V18.9453H131.043C131.105 18.9453 131.137 18.9766 131.137 19.0391L131.16 21.7578C131.16 21.8203 131.129 21.8516 131.066 21.8516H126.121V26.0469H131.066C131.129 26.0469 131.16 26.0859 131.16 26.1641V28.9062C131.16 28.9688 131.129 29 131.066 29Z" fill="black"/>
<path d="M1 28.5C1 27.837 1.26339 27.2011 1.73223 26.7322C2.20107 26.2634 2.83696 26 3.5 26H17" stroke="black" stroke-width="2" stroke-linecap="round" stroke-linejoin="round"/>
<path d="M3.5 11H17V31H3.5C2.83696 31 2.20107 30.7366 1.73223 30.2678C1.26339 29.7989 1 29.163 1 28.5V13.5C1 12.837 1.26339 12.2011 1.73223 11.7322C2.20107 11.2634 2.83696 11 3.5 11Z" stroke="black" stroke-width="2" stroke-linecap="round" stroke-linejoin="round"/>
</svg>
