<svg width="50" height="50" viewBox="0 0 50 50" fill="none" xmlns="http://www.w3.org/2000/svg">
<path d="M33.3333 41.75V37.5833C33.3333 35.3732 32.4554 33.2536 30.8926 31.6908C29.3298 30.128 27.2101 29.25 25 29.25H10.4167C8.20654 29.25 6.08692 30.128 4.52412 31.6908C2.96132 33.2536 2.08334 35.3732 2.08334 37.5833V41.75" stroke="black" stroke-width="2" stroke-linecap="round" stroke-linejoin="round"/>
<path d="M17.7083 22.9167C22.3107 22.9167 26.0417 19.1857 26.0417 14.5833C26.0417 9.98096 22.3107 6.25 17.7083 6.25C13.106 6.25 9.375 9.98096 9.375 14.5833C9.375 19.1857 13.106 22.9167 17.7083 22.9167Z" stroke="black" stroke-width="2" stroke-linecap="round" stroke-linejoin="round"/>
<path d="M41.6667 16.6667V29.1667" stroke="black" stroke-width="2" stroke-linecap="round" stroke-linejoin="round"/>
<path d="M47.9167 22.9167H35.4167" stroke="black" stroke-width="2" stroke-linecap="round" stroke-linejoin="round"/>
</svg>
