<svg width="50" height="50" viewBox="0 0 50 50" fill="none" xmlns="http://www.w3.org/2000/svg">
<path d="M33.3333 8.33334H37.5C38.6051 8.33334 39.6649 8.77232 40.4463 9.55372C41.2277 10.3351 41.6667 11.3949 41.6667 12.5V41.6667C41.6667 42.7717 41.2277 43.8315 40.4463 44.6129C39.6649 45.3943 38.6051 45.8333 37.5 45.8333H12.5C11.3949 45.8333 10.3351 45.3943 9.55373 44.6129C8.77233 43.8315 8.33334 42.7717 8.33334 41.6667V12.5C8.33334 11.3949 8.77233 10.3351 9.55373 9.55372C10.3351 8.77232 11.3949 8.33334 12.5 8.33334H16.6667" stroke="black" stroke-width="2" stroke-linecap="round" stroke-linejoin="round"/>
<path d="M31.25 4.16666H18.75C17.5994 4.16666 16.6667 5.0994 16.6667 6.25V10.4167C16.6667 11.5673 17.5994 12.5 18.75 12.5H31.25C32.4006 12.5 33.3333 11.5673 33.3333 10.4167V6.25C33.3333 5.0994 32.4006 4.16666 31.25 4.16666Z" stroke="black" stroke-width="2" stroke-linecap="round" stroke-linejoin="round"/>
<g clip-path="url(#clip0_7_76)">
<path d="M22.5 37.3333C22.9602 37.3333 23.3333 36.9602 23.3333 36.5C23.3333 36.0398 22.9602 35.6667 22.5 35.6667C22.0398 35.6667 21.6667 36.0398 21.6667 36.5C21.6667 36.9602 22.0398 37.3333 22.5 37.3333Z" stroke="black" stroke-width="2" stroke-linecap="round" stroke-linejoin="round"/>
<path d="M31.6667 37.3333C32.1269 37.3333 32.5 36.9602 32.5 36.5C32.5 36.0398 32.1269 35.6667 31.6667 35.6667C31.2064 35.6667 30.8333 36.0398 30.8333 36.5C30.8333 36.9602 31.2064 37.3333 31.6667 37.3333Z" stroke="black" stroke-width="2" stroke-linecap="round" stroke-linejoin="round"/>
<path d="M15.8333 19.8333H19.1667L21.4 30.9917C21.4762 31.3753 21.6849 31.72 21.9896 31.9653C22.2943 32.2105 22.6756 32.3408 23.0667 32.3333H31.1667C31.5578 32.3408 31.939 32.2105 32.2437 31.9653C32.5484 31.72 32.7571 31.3753 32.8333 30.9917L34.1667 24H20" stroke="black" stroke-width="2" stroke-linecap="round" stroke-linejoin="round"/>
</g>
<defs>
<clipPath id="clip0_7_76">
<rect width="20" height="20" fill="white" transform="translate(15 19)"/>
</clipPath>
</defs>
</svg>
