<svg width="44" height="40" viewBox="0 0 44 40" fill="none" xmlns="http://www.w3.org/2000/svg">
<path d="M42.6667 34.3333C42.6667 35.4384 42.2277 36.4982 41.4463 37.2796C40.6649 38.061 39.6051 38.5 38.5 38.5H5.16667C4.0616 38.5 3.00179 38.061 2.22039 37.2796C1.43899 36.4982 1 35.4384 1 34.3333V5.16667C1 4.0616 1.43899 3.00179 2.22039 2.22039C3.00179 1.43899 4.0616 1 5.16667 1H15.5833L19.75 7.25H38.5C39.6051 7.25 40.6649 7.68899 41.4463 8.47039C42.2277 9.25179 42.6667 10.3116 42.6667 11.4167V34.3333Z" stroke="black" stroke-width="2" stroke-linecap="round" stroke-linejoin="round"/>
<path d="M29.8333 31.75V29.75C29.8333 28.6891 29.4119 27.6717 28.6618 26.9216C27.9116 26.1714 26.8942 25.75 25.8333 25.75H17.8333C16.7725 25.75 15.755 26.1714 15.0049 26.9216C14.2548 27.6717 13.8333 28.6891 13.8333 29.75V31.75" stroke="black" stroke-width="2" stroke-linecap="round" stroke-linejoin="round"/>
<path d="M21.8333 21.75C24.0425 21.75 25.8333 19.9591 25.8333 17.75C25.8333 15.5409 24.0425 13.75 21.8333 13.75C19.6242 13.75 17.8333 15.5409 17.8333 17.75C17.8333 19.9591 19.6242 21.75 21.8333 21.75Z" stroke="black" stroke-width="2" stroke-linecap="round" stroke-linejoin="round"/>
</svg>
