<svg width="50" height="50" viewBox="0 0 50 50" fill="none" xmlns="http://www.w3.org/2000/svg">
<path d="M33.3333 6.25H2.08333V33.3333H33.3333V6.25Z" stroke="black" stroke-width="2" stroke-linecap="round" stroke-linejoin="round"/>
<path d="M33.3333 16.6667H41.6667L47.9167 22.9167V33.3333H33.3333V16.6667Z" stroke="black" stroke-width="2" stroke-linecap="round" stroke-linejoin="round"/>
<path d="M11.4583 43.75C14.3348 43.75 16.6667 41.4181 16.6667 38.5417C16.6667 35.6652 14.3348 33.3333 11.4583 33.3333C8.58185 33.3333 6.25 35.6652 6.25 38.5417C6.25 41.4181 8.58185 43.75 11.4583 43.75Z" stroke="black" stroke-width="2" stroke-linecap="round" stroke-linejoin="round"/>
<path d="M38.5417 43.75C41.4181 43.75 43.75 41.4181 43.75 38.5417C43.75 35.6652 41.4181 33.3333 38.5417 33.3333C35.6652 33.3333 33.3333 35.6652 33.3333 38.5417C33.3333 41.4181 35.6652 43.75 38.5417 43.75Z" stroke="black" stroke-width="2" stroke-linecap="round" stroke-linejoin="round"/>
</svg>
