<svg width="50" height="50" viewBox="0 0 50 50" fill="none" xmlns="http://www.w3.org/2000/svg">
<path d="M25 45.8333C36.5059 45.8333 45.8333 36.5059 45.8333 25C45.8333 13.4941 36.5059 4.16667 25 4.16667C13.4941 4.16667 4.16666 13.4941 4.16666 25C4.16666 36.5059 13.4941 45.8333 25 45.8333Z" stroke="black" stroke-width="2" stroke-linecap="round" stroke-linejoin="round"/>
<path d="M30.1923 32.8V31.3333C30.1923 30.5554 29.8925 29.8093 29.3587 29.2591C28.8249 28.709 28.101 28.4 27.3462 28.4H21.6539C20.899 28.4 20.1751 28.709 19.6413 29.2591C19.1076 29.8093 18.8077 30.5554 18.8077 31.3333V32.8" stroke="black" stroke-width="2" stroke-linecap="round" stroke-linejoin="round"/>
<path d="M24.5 25.4667C26.0719 25.4667 27.3462 24.1534 27.3462 22.5333C27.3462 20.9133 26.0719 19.6 24.5 19.6C22.9281 19.6 21.6539 20.9133 21.6539 22.5333C21.6539 24.1534 22.9281 25.4667 24.5 25.4667Z" stroke="black" stroke-width="2" stroke-linecap="round" stroke-linejoin="round"/>
<path d="M20.2308 28.4V26.9333C20.2308 26.1554 19.9309 25.4093 19.3972 24.8592C18.8634 24.309 18.1395 24 17.3846 24H11.6923C10.9375 24 10.2135 24.309 9.67978 24.8592C9.14602 25.4093 8.84616 26.1554 8.84616 26.9333V28.4" stroke="black" stroke-width="2" stroke-linecap="round" stroke-linejoin="round"/>
<path d="M14.5385 21.0667C16.1104 21.0667 17.3846 19.7534 17.3846 18.1333C17.3846 16.5133 16.1104 15.2 14.5385 15.2C12.9666 15.2 11.6923 16.5133 11.6923 18.1333C11.6923 19.7534 12.9666 21.0667 14.5385 21.0667Z" stroke="black" stroke-width="2" stroke-linecap="round" stroke-linejoin="round"/>
<path d="M40.1538 28.4V26.9333C40.1538 26.1554 39.854 25.4093 39.3202 24.8592C38.7865 24.309 38.0625 24 37.3077 24H31.6154C30.8605 24 30.1366 24.309 29.6028 24.8592C29.0691 25.4093 28.7692 26.1554 28.7692 26.9333V28.4" stroke="black" stroke-width="2" stroke-linecap="round" stroke-linejoin="round"/>
<path d="M34.4615 21.0667C36.0334 21.0667 37.3077 19.7534 37.3077 18.1333C37.3077 16.5133 36.0334 15.2 34.4615 15.2C32.8897 15.2 31.6154 16.5133 31.6154 18.1333C31.6154 19.7534 32.8897 21.0667 34.4615 21.0667Z" stroke="black" stroke-width="2" stroke-linecap="round" stroke-linejoin="round"/>
</svg>
