<svg width="66" height="65" viewBox="0 0 66 65" fill="none" xmlns="http://www.w3.org/2000/svg">
<g filter="url(#filter0_d_7_142)">
<path d="M54.25 1V13.5" stroke="black" stroke-width="2" stroke-linecap="round" stroke-linejoin="round"/>
<path d="M60.5 7.25H48" stroke="black" stroke-width="2" stroke-linecap="round" stroke-linejoin="round"/>
<path d="M22.75 52.8333C23.9006 52.8333 24.8333 51.9006 24.8333 50.75C24.8333 49.5994 23.9006 48.6667 22.75 48.6667C21.5994 48.6667 20.6667 49.5994 20.6667 50.75C20.6667 51.9006 21.5994 52.8333 22.75 52.8333Z" stroke="black" stroke-width="2" stroke-linecap="round" stroke-linejoin="round"/>
<path d="M45.6667 52.8333C46.8173 52.8333 47.75 51.9006 47.75 50.75C47.75 49.5994 46.8173 48.6667 45.6667 48.6667C44.5161 48.6667 43.5833 49.5994 43.5833 50.75C43.5833 51.9006 44.5161 52.8333 45.6667 52.8333Z" stroke="black" stroke-width="2" stroke-linecap="round" stroke-linejoin="round"/>
<path d="M6.08334 9.08333H14.4167L20 36.9792C20.1905 37.9383 20.7123 38.7999 21.4741 39.4131C22.2358 40.0263 23.189 40.3521 24.1667 40.3333H44.4167C45.3944 40.3521 46.3475 40.0263 47.1093 39.4131C47.871 38.7999 48.3928 37.9383 48.5833 36.9792L51.9167 19.5H16.5" stroke="black" stroke-width="2" stroke-linecap="round" stroke-linejoin="round"/>
</g>
<defs>
<filter id="filter0_d_7_142" x="0" y="0" width="65.5" height="65" filterUnits="userSpaceOnUse" color-interpolation-filters="sRGB">
<feFlood flood-opacity="0" result="BackgroundImageFix"/>
<feColorMatrix in="SourceAlpha" type="matrix" values="0 0 0 0 0 0 0 0 0 0 0 0 0 0 0 0 0 0 127 0" result="hardAlpha"/>
<feOffset dy="4"/>
<feGaussianBlur stdDeviation="2"/>
<feComposite in2="hardAlpha" operator="out"/>
<feColorMatrix type="matrix" values="0 0 0 0 0 0 0 0 0 0 0 0 0 0 0 0 0 0 0.25 0"/>
<feBlend mode="normal" in2="BackgroundImageFix" result="effect1_dropShadow_7_142"/>
<feBlend mode="normal" in="SourceGraphic" in2="effect1_dropShadow_7_142" result="shape"/>
</filter>
</defs>
</svg>
