<svg width="50" height="50" viewBox="0 0 50 50" fill="none" xmlns="http://www.w3.org/2000/svg">
<path d="M44.0122 1.91257C44.2702 1.64538 44.5783 1.43163 44.9189 1.28352C45.2596 1.13541 45.626 1.05585 45.9974 1.04936C46.3688 1.04288 46.7378 1.10961 47.0834 1.24574C47.429 1.38187 47.7444 1.58474 48.0116 1.84276C48.2788 2.10078 48.4925 2.4089 48.6406 2.74953C48.7887 3.09015 48.8683 3.45662 48.8748 3.828C48.8813 4.19937 48.8145 4.56839 48.6784 4.91398C48.5423 5.25957 48.3394 5.57496 48.0814 5.84215L34.819 19.5757L29.3461 21.1715L30.7498 15.6461L44.0122 1.91257Z" stroke="black" stroke-width="2" stroke-linecap="round" stroke-linejoin="round"/>
<path d="M22.9167 8.33333L8.33334 8.33333C7.22827 8.33333 6.16846 8.77231 5.38706 9.55372C4.60566 10.3351 4.16667 11.3949 4.16667 12.5L4.16667 41.6667C4.16667 42.7717 4.60566 43.8315 5.38706 44.6129C6.16846 45.3943 7.22827 45.8333 8.33334 45.8333L37.5 45.8333C38.6051 45.8333 39.6649 45.3943 40.4463 44.6129C41.2277 43.8315 41.6667 42.7717 41.6667 41.6667V27.0833" stroke="black" stroke-width="2" stroke-linecap="round" stroke-linejoin="round"/>
<g clip-path="url(#clip0_7_91)">
<path d="M24.3333 21.5H11.8333V32.3333H24.3333V21.5Z" stroke="black" stroke-width="2" stroke-linecap="round" stroke-linejoin="round"/>
<path d="M24.3333 25.6667H27.6667L30.1667 28.1667V32.3333H24.3333V25.6667Z" stroke="black" stroke-width="2" stroke-linecap="round" stroke-linejoin="round"/>
<path d="M15.5833 36.5C16.7339 36.5 17.6667 35.5673 17.6667 34.4167C17.6667 33.2661 16.7339 32.3333 15.5833 32.3333C14.4327 32.3333 13.5 33.2661 13.5 34.4167C13.5 35.5673 14.4327 36.5 15.5833 36.5Z" stroke="black" stroke-width="2" stroke-linecap="round" stroke-linejoin="round"/>
<path d="M26.4167 36.5C27.5673 36.5 28.5 35.5673 28.5 34.4167C28.5 33.2661 27.5673 32.3333 26.4167 32.3333C25.2661 32.3333 24.3333 33.2661 24.3333 34.4167C24.3333 35.5673 25.2661 36.5 26.4167 36.5Z" stroke="black" stroke-width="2" stroke-linecap="round" stroke-linejoin="round"/>
</g>
<defs>
<clipPath id="clip0_7_91">
<rect width="20" height="20" fill="white" transform="translate(11 19)"/>
</clipPath>
</defs>
</svg>
