<svg width="40" height="45" viewBox="0 0 40 45" fill="none" xmlns="http://www.w3.org/2000/svg">
<path d="M1 9.77625H5.16667H38.5" stroke="#FF0000" stroke-width="2" stroke-linecap="round" stroke-linejoin="round"/>
<path d="M34.3333 9.77624V38.9429C34.3333 40.048 33.8943 41.1078 33.1129 41.8892C32.3315 42.6706 31.2717 43.1096 30.1667 43.1096H9.33332C8.22825 43.1096 7.16845 42.6706 6.38704 41.8892C5.60564 41.1078 5.16666 40.048 5.16666 38.9429V9.77624M11.4167 9.77624V5.60957C11.4167 4.5045 11.8556 3.44469 12.637 2.66329C13.4184 1.88189 14.4783 1.4429 15.5833 1.4429H23.9167C25.0217 1.4429 26.0815 1.88189 26.8629 2.66329C27.6443 3.44469 28.0833 4.5045 28.0833 5.60957V9.77624" stroke="#FF0000" stroke-width="2" stroke-linecap="round" stroke-linejoin="round"/>
<path d="M15.5833 20.1929V32.6929" stroke="#FF0000" stroke-width="2" stroke-linecap="round" stroke-linejoin="round"/>
<path d="M23.9167 20.1929V32.6929" stroke="#FF0000" stroke-width="2" stroke-linecap="round" stroke-linejoin="round"/>
</svg>
