<svg width="52" height="52" viewBox="0 0 52 52" fill="none" xmlns="http://www.w3.org/2000/svg">
<path d="M38.8245 3.08899C39.4868 2.4267 40.273 1.90134 41.1384 1.54291C42.0037 1.18448 42.9311 1 43.8677 1C44.8044 1 45.7318 1.18448 46.5971 1.54291C47.4625 1.90134 48.2487 2.4267 48.911 3.08899C49.5733 3.75128 50.0987 4.53753 50.4571 5.40286C50.8155 6.26818 51 7.19563 51 8.13225C51 9.06887 50.8155 9.99632 50.4571 10.8616C50.0987 11.727 49.5733 12.5132 48.911 13.1755L14.869 47.2175L1 51L4.78245 37.131L38.8245 3.08899Z" stroke="#1B7AD2" stroke-width="2" stroke-linecap="round" stroke-linejoin="round"/>
</svg>
